<svg width="107" height="82" viewBox="0 0 107 82" fill="none" xmlns="http://www.w3.org/2000/svg">
<g filter="url(#filter0_d_4_7)">
<path d="M18.0625 55.4688C16.0938 55.4688 14.0781 55.0312 12.0156 54.1562C11.9219 53.7812 11.8125 53.25 11.6875 52.5625C11.5938 51.875 11.5 51.1875 11.4062 50.5C11.3438 49.7812 11.3125 49.2344 11.3125 48.8594C11.5312 48.7031 11.75 48.625 11.9688 48.625C12.6562 48.625 13.0312 48.75 13.0938 49C13.3438 50.3125 13.9531 51.375 14.9219 52.1875C15.9219 52.9688 17 53.3594 18.1562 53.3594C19.0312 53.3594 19.75 53.1406 20.3125 52.7031C20.875 52.2344 21.1562 51.5469 21.1562 50.6406C21.1562 49.9844 20.9062 49.3906 20.4062 48.8594C19.9062 48.2969 19.4375 47.9062 19 47.6875L15.9062 46.0469C14.4688 45.2969 13.3594 44.4688 12.5781 43.5625C11.7969 42.625 11.4062 41.5 11.4062 40.1875C11.4062 38.9062 11.75 37.8281 12.4375 36.9531C13.1562 36.0781 14.0781 35.4062 15.2031 34.9375C16.3594 34.4688 17.5938 34.2344 18.9062 34.2344C20.5938 34.2344 22.4062 34.5 24.3438 35.0312C24.5 35.7188 24.6094 36.5 24.6719 37.375C24.7656 38.25 24.8281 39.2188 24.8594 40.2812C24.8594 40.5312 24.6562 40.6562 24.25 40.6562C23.5625 40.6562 23.1875 40.5312 23.125 40.2812C22.9062 39.1875 22.4375 38.2656 21.7188 37.5156C21.0312 36.7344 20.0938 36.3438 18.9062 36.3438C18 36.3438 17.2812 36.5469 16.75 36.9531C16.25 37.3594 16 37.9375 16 38.6875C16 39.5 16.3125 40.1875 16.9375 40.75C17.5625 41.3125 18.4062 41.8594 19.4688 42.3906C20.2812 42.7969 21.0625 43.2344 21.8125 43.7031C22.5938 44.1719 23.3281 44.6875 24.0156 45.25C25.2344 46.2188 25.8438 47.5 25.8438 49.0938C25.8438 50.4062 25.4844 51.5469 24.7656 52.5156C24.0781 53.4531 23.1406 54.1875 21.9531 54.7188C20.7969 55.2188 19.5 55.4688 18.0625 55.4688ZM29.2188 55.1875C29.0938 55.0625 29.0312 54.7656 29.0312 54.2969C29.0312 53.8281 29.0938 53.5938 29.2188 53.5938C29.4688 53.5938 29.8125 53.5469 30.25 53.4531C30.7188 53.3281 31.1406 53.1875 31.5156 53.0312C31.9219 52.8438 32.1406 52.6875 32.1719 52.5625C32.3906 51.6875 32.5 50.5469 32.5 49.1406V41.5C32.5 40.0938 32.25 39.0938 31.75 38.5C31.4688 38.1562 31.1094 37.9375 30.6719 37.8438C30.2656 37.7188 29.9062 37.6406 29.5938 37.6094C29.2812 37.5469 29.125 37.4688 29.125 37.375C29.125 36.5 29.2031 36.0312 29.3594 35.9688C30.0781 35.9062 31.125 35.75 32.5 35.5C33.9062 35.25 35.2188 34.9688 36.4375 34.6562C36.5 34.625 36.6406 34.5938 36.8594 34.5625C37.1094 34.5 37.25 34.4688 37.2812 34.4688C37.4062 34.4688 37.5156 34.5781 37.6094 34.7969C37.7031 35.0156 37.75 35.1875 37.75 35.3125C37.6875 35.75 37.6406 36.1094 37.6094 36.3906C37.5781 36.6719 37.5625 36.875 37.5625 37C37.5625 37.1562 37.5938 37.2344 37.6562 37.2344C37.6875 37.2344 37.75 37.1875 37.8438 37.0938C38.5938 36.3438 39.5469 35.6875 40.7031 35.125C41.8906 34.5625 43.0938 34.2812 44.3125 34.2812C48.3438 34.2812 50.3594 37.4844 50.3594 43.8906V48.3438C50.3594 50.3125 50.4688 51.7188 50.6875 52.5625C50.75 52.6875 50.9688 52.8438 51.3438 53.0312C51.75 53.1875 52.1719 53.3281 52.6094 53.4531C53.0781 53.5469 53.4062 53.5938 53.5938 53.5938C53.6875 53.5938 53.7344 53.8281 53.7344 54.2969C53.7656 54.7344 53.75 55.0312 53.6875 55.1875C53.5625 55.1562 53.125 55.1094 52.375 55.0469C51.6562 55.0156 50.8594 54.9844 49.9844 54.9531C49.1406 54.8906 48.4688 54.8594 47.9688 54.8594C47.4688 54.8594 46.8125 54.8906 46 54.9531C45.2188 54.9844 44.4688 55.0156 43.75 55.0469C43.0625 55.1094 42.625 55.1562 42.4375 55.1875C42.3125 55.0625 42.25 54.7656 42.25 54.2969C42.25 53.8281 42.3125 53.5938 42.4375 53.5938C42.6875 53.5938 43.0156 53.5469 43.4219 53.4531C43.8281 53.3281 44.2031 53.1875 44.5469 53.0312C44.9219 52.8438 45.125 52.6875 45.1562 52.5625C45.2812 52.0938 45.375 51.5781 45.4375 51.0156C45.5 50.4531 45.5312 49.8281 45.5312 49.1406V44.6875C45.5312 42.0938 45.1719 40.2812 44.4531 39.25C43.7656 38.2188 42.6562 37.7031 41.125 37.7031C40.125 37.7031 39.25 37.9844 38.5 38.5469C37.75 39.0781 37.375 39.6562 37.375 40.2812V48.3438C37.375 50.3125 37.4844 51.7188 37.7031 52.5625C37.7656 52.6875 37.9844 52.8438 38.3594 53.0312C38.7344 53.1875 39.1406 53.3281 39.5781 53.4531C40.0156 53.5469 40.3125 53.5938 40.4688 53.5938C40.5938 53.5938 40.6562 53.8281 40.6562 54.2969C40.6875 54.7344 40.6719 55.0312 40.6094 55.1875C40.4531 55.1562 40 55.1094 39.25 55.0469C38.5312 55.0156 37.7656 54.9844 36.9531 54.9531C36.1406 54.8906 35.4844 54.8594 34.9844 54.8594C34.4844 54.8594 33.8125 54.8906 32.9688 54.9531C32.125 54.9844 31.3281 55.0156 30.5781 55.0469C29.8594 55.1094 29.4062 55.1562 29.2188 55.1875ZM61.7031 55.3281C60.1406 55.3281 58.8594 54.9062 57.8594 54.0625C56.8906 53.1875 56.4062 52 56.4062 50.5C56.4062 49.4688 56.7344 48.5312 57.3906 47.6875C58.0781 46.8438 59.0312 46.125 60.25 45.5312C60.6875 45.3125 61.0781 45.1406 61.4219 45.0156C61.7969 44.8594 62.1406 44.7188 62.4531 44.5938C63.5469 44.25 64.4531 43.9688 65.1719 43.75C65.9219 43.5312 66.4531 43.375 66.7656 43.2812C67.0469 43.125 67.1875 42.875 67.1875 42.5312V39.9531C67.1875 38.8594 66.9375 38 66.4375 37.375C65.9375 36.75 65.2656 36.4375 64.4219 36.4375C63.4844 36.4375 62.75 36.7344 62.2188 37.3281C61.6875 37.8906 61.4219 38.7031 61.4219 39.7656C61.4219 40.3906 61.1875 40.8594 60.7188 41.1719C60.25 41.4531 59.7188 41.5938 59.125 41.5938C57.9688 41.5938 57.1562 41.2188 56.6875 40.4688C56.6875 39.7188 56.9688 38.9844 57.5312 38.2656C58.0938 37.5156 58.8281 36.8438 59.7344 36.25C60.6719 35.6562 61.7031 35.1875 62.8281 34.8438C63.9531 34.4688 65.0781 34.2812 66.2031 34.2812C68.1406 34.2812 69.5938 34.7969 70.5625 35.8281C71.5312 36.8281 72.0156 38.5625 72.0156 41.0312V50.2656C72.0156 51.5469 72.5312 52.1875 73.5625 52.1875C74.0312 52.1875 74.5625 51.9844 75.1562 51.5781C75.3438 51.6094 75.4375 51.7812 75.4375 52.0938C75.4375 52.6875 75.3438 53.1562 75.1562 53.5C74.6875 53.875 74.0625 54.2656 73.2812 54.6719C72.5 55.0781 71.75 55.2812 71.0312 55.2812C70.3125 55.2812 69.6094 55.0156 68.9219 54.4844C68.2344 53.9531 67.7812 53.375 67.5625 52.75C67.3125 52.9688 67.125 53.125 67 53.2188C66.875 53.3125 66.6719 53.4688 66.3906 53.6875C65.7344 54.125 65.0156 54.5156 64.2344 54.8594C63.4531 55.1719 62.6094 55.3281 61.7031 55.3281ZM64.0938 52.2812C64.9375 52.2812 65.6562 52.0625 66.25 51.625C66.875 51.1875 67.1875 50.6875 67.1875 50.125V45.3438L64.1875 46.375C63.4688 46.6875 62.8281 47.0625 62.2656 47.5C61.7031 47.9375 61.4219 48.5625 61.4219 49.375C61.4219 50.375 61.6719 51.1094 62.1719 51.5781C62.6719 52.0469 63.3125 52.2812 64.0938 52.2812ZM87.625 55.2812C85.7188 55.2812 84 54.8125 82.4688 53.875C80.9375 52.9375 79.7188 51.6719 78.8125 50.0781C77.9062 48.4844 77.4531 46.7188 77.4531 44.7812C77.4531 42.875 77.875 41.1406 78.7188 39.5781C79.5938 37.9844 80.7969 36.7031 82.3281 35.7344C83.8594 34.7656 85.625 34.2812 87.625 34.2812C89.2812 34.2812 90.75 34.5625 92.0312 35.125C93.3438 35.6562 94.2812 36.25 94.8438 36.9062C94.8438 37.9688 94.6562 38.8594 94.2812 39.5781C93.9375 40.2656 93.4062 40.6094 92.6875 40.6094C92.0938 40.6094 91.6094 40.4531 91.2344 40.1406C90.8906 39.8281 90.5312 39.3125 90.1562 38.5938C89.4688 37.1562 88.4219 36.4375 87.0156 36.4375C85.6719 36.4375 84.5938 37.125 83.7812 38.5C83 39.8438 82.6094 41.5469 82.6094 43.6094C82.6094 46.4219 83.1875 48.5156 84.3438 49.8906C85.5 51.2344 86.9688 51.9062 88.75 51.9062C89.5625 51.9062 90.2344 51.8438 90.7656 51.7188C91.2969 51.5938 91.8125 51.4531 92.3125 51.2969C92.5625 51.2031 92.875 51.0469 93.25 50.8281C93.625 50.5781 93.9688 50.3594 94.2812 50.1719C94.5938 49.9531 94.75 49.8438 94.75 49.8438C94.8125 49.875 94.8906 49.9688 94.9844 50.125C95.0781 50.2812 95.125 50.4375 95.125 50.5938C95.125 51.1875 94.75 51.8594 94 52.6094C93.2812 53.3281 92.3438 53.9531 91.1875 54.4844C90.0625 55.0156 88.875 55.2812 87.625 55.2812Z" fill="#1F5C7C"/>
</g>
<defs>
<filter id="filter0_d_4_7" x="11.3125" y="33.2344" width="83.8125" height="22.2344" filterUnits="userSpaceOnUse" color-interpolation-filters="sRGB">
<feFlood flood-opacity="0" result="BackgroundImageFix"/>
<feColorMatrix in="SourceAlpha" type="matrix" values="0 0 0 0 0 0 0 0 0 0 0 0 0 0 0 0 0 0 127 0" result="hardAlpha"/>
<feOffset dy="-1"/>
<feComposite in2="hardAlpha" operator="out"/>
<feColorMatrix type="matrix" values="0 0 0 0 0 0 0 0 0 0 0 0 0 0 0 0 0 0 0.25 0"/>
<feBlend mode="normal" in2="BackgroundImageFix" result="effect1_dropShadow_4_7"/>
<feBlend mode="normal" in="SourceGraphic" in2="effect1_dropShadow_4_7" result="shape"/>
</filter>
</defs>
</svg>
