<?xml version="1.0" encoding="UTF-8"?>
<svg id="Ebene_3" data-name="Ebene 3" xmlns="http://www.w3.org/2000/svg" xmlns:xlink="http://www.w3.org/1999/xlink" viewBox="0 0 269.29 215.43">
  <defs>
    <style>
      .cls-1 {
        fill: #fff;
      }

      .cls-2 {
        fill: url(#Unbenannter_Verlauf_31);
      }
    </style>
    <radialGradient id="Unbenannter_Verlauf_31" data-name="Unbenannter Verlauf 31" cx="107.72" cy="107.72" fx="107.72" fy="107.72" r="93.54" gradientUnits="userSpaceOnUse">
      <stop offset="0" stop-color="#69c"/>
      <stop offset=".35" stop-color="#69c" stop-opacity=".6"/>
      <stop offset=".66" stop-color="#69c" stop-opacity=".28"/>
      <stop offset=".88" stop-color="#69c" stop-opacity=".08"/>
      <stop offset="1" stop-color="#69c" stop-opacity="0"/>
    </radialGradient>
  </defs>
  <rect class="cls-1" y="0" width="269.29" height="215.43"/>
  <g>
    <circle class="cls-2" cx="107.72" cy="107.72" r="93.54"/>
    <g>
      <path d="M87.89,111.87c0,2.33-.57,4.37-1.72,6.1-1.15,1.74-2.8,3.08-4.97,4.02s-4.8,1.42-7.91,1.42c-1.37,0-2.71-.09-4.02-.28-1.31-.19-2.57-.45-3.77-.8-1.2-.35-2.34-.79-3.41-1.3v-7.83c1.89.81,3.84,1.56,5.85,2.25,2.02.68,4.02,1.03,6.02,1.03,1.37,0,2.47-.18,3.3-.55.83-.37,1.44-.87,1.83-1.5.39-.63.58-1.35.58-2.16,0-1-.34-1.85-1.03-2.55-.69-.7-1.6-1.36-2.75-1.97-1.15-.61-2.46-1.27-3.94-1.97-.93-.44-1.92-.97-3-1.58-1.07-.61-2.1-1.37-3.08-2.28-.98-.91-1.79-2.01-2.41-3.3-.63-1.29-.94-2.85-.94-4.66,0-2.37.55-4.39,1.64-6.08,1.09-1.68,2.65-2.97,4.66-3.86,2.02-.89,4.39-1.33,7.13-1.33,2.07,0,4.04.24,5.91.72,1.87.48,3.82,1.17,5.85,2.05l-2.72,6.55c-1.81-.74-3.44-1.31-4.88-1.72-1.44-.41-2.92-.61-4.44-.61-1.04,0-1.92.17-2.66.5-.74.33-1.3.8-1.69,1.39-.39.59-.58,1.3-.58,2.11,0,.93.28,1.71.83,2.36.56.65,1.39,1.27,2.5,1.86,1.11.59,2.5,1.3,4.16,2.11,2.03.96,3.76,1.96,5.19,3,1.42,1.04,2.53,2.26,3.3,3.66.78,1.41,1.17,3.15,1.17,5.22Z"/>
      <path d="M122.17,107.65c0,2.52-.34,4.75-1.03,6.72-.69,1.96-1.67,3.62-2.94,4.97-1.28,1.35-2.82,2.37-4.63,3.05-1.81.68-3.87,1.03-6.16,1.03-2.11,0-4.06-.34-5.86-1.03-1.79-.68-3.34-1.7-4.63-3.05-1.3-1.35-2.3-3.01-3.02-4.97-.72-1.96-1.08-4.2-1.08-6.72,0-3.37.59-6.21,1.78-8.52,1.18-2.31,2.89-4.08,5.11-5.3,2.22-1.22,4.85-1.83,7.88-1.83,2.85,0,5.36.61,7.55,1.83,2.18,1.22,3.9,2.99,5.16,5.3,1.26,2.31,1.89,5.15,1.89,8.52ZM101.25,107.65c0,2,.21,3.67.64,5.02.42,1.35,1.1,2.37,2.03,3.05.92.68,2.13,1.03,3.61,1.03s2.67-.34,3.58-1.03c.91-.68,1.57-1.7,2-3.05.42-1.35.64-3.02.64-5.02s-.21-3.66-.64-5c-.43-1.33-1.1-2.33-2.03-3-.93-.67-2.13-1-3.61-1-2.18,0-3.77.75-4.75,2.25-.98,1.5-1.47,3.75-1.47,6.74Z"/>
      <path d="M164.53,122.86h-10.66l-17.26-29.97h-.22c.07,1.26.14,2.52.19,3.77.06,1.26.11,2.52.17,3.77.06,1.26.1,2.52.14,3.77v18.65h-7.49v-39.63h10.6l17.21,29.69h.17c-.04-1.22-.07-2.44-.11-3.66-.04-1.22-.08-2.43-.14-3.64-.06-1.2-.1-2.41-.14-3.64v-18.76h7.55v39.63Z"/>
      <path d="M199.22,122.86l-2.89-9.44h-14.43l-2.89,9.44h-9.05l13.99-39.79h10.27l14.04,39.79h-9.05ZM191.45,97.16c-.19-.63-.43-1.42-.72-2.39-.3-.96-.59-1.94-.89-2.94-.3-1-.54-1.87-.72-2.61-.19.74-.44,1.66-.75,2.75-.31,1.09-.61,2.13-.89,3.11-.28.98-.49,1.67-.64,2.08l-2.83,9.21h10.32l-2.89-9.21Z"/>
      <path d="M225.26,83.23c3.59,0,6.55.44,8.88,1.3,2.33.87,4.07,2.18,5.22,3.94,1.15,1.76,1.72,3.97,1.72,6.63,0,1.81-.34,3.39-1.03,4.75-.69,1.35-1.59,2.5-2.72,3.44-1.13.94-2.34,1.71-3.64,2.3l11.66,17.26h-9.32l-9.43-15.21h-4.5v15.21h-8.38v-39.63h11.54ZM224.65,90.12h-2.55v10.71h2.72c2.78,0,4.76-.46,5.97-1.39,1.2-.92,1.8-2.29,1.8-4.11,0-1.26-.29-2.27-.86-3.02-.57-.76-1.44-1.31-2.61-1.67s-2.66-.53-4.47-.53Z"/>
    </g>
  </g>
</svg>