<?xml version="1.0" encoding="UTF-8"?>
<svg id="Ebene_1" xmlns="http://www.w3.org/2000/svg" version="1.1" viewBox="0 0 156.7 55.8">
<title>ZEFYS</title>
<desc>Schriftzug des Zeitungsinformationssystems</desc>
  <!-- Generator: Adobe Illustrator 29.0.0, SVG Export Plug-In . SVG Version: 2.1.0 Build 186)  -->
  <path d="M29.5,40.2H0v-5.4L19,7.5H.5V.6h28.5v5.4l-19,27.3h19.5v6.9Z"/>
  <path d="M58.9,40.2h-22.8V.6h22.8v6.9h-14.4v8.7h13.4v6.9h-13.4v10.2h14.4v6.9Z"/>
  <path d="M75.5,40.2h-8.3V.6h22.7v6.9h-14.4v10.2h13.4v6.9h-13.4v15.7Z"/>
  <path d="M111.4,16.9L119.7.6h9l-13.2,24.2v15.4h-8.3v-15.2L94.1.6h9.1l8.2,16.3Z"/>
  <path d="M156.7,29.2c0,2.3-.6,4.4-1.7,6.1-1.1,1.7-2.8,3.1-5,4-2.2.9-4.8,1.4-7.9,1.4s-2.7,0-4-.3c-1.3-.2-2.6-.5-3.8-.8-1.2-.4-2.3-.8-3.4-1.3v-7.8c1.9.8,3.8,1.6,5.9,2.2,2,.7,4,1,6,1s2.5-.2,3.3-.6c.8-.4,1.4-.9,1.8-1.5.4-.6.6-1.4.6-2.2s-.3-1.8-1-2.6c-.7-.7-1.6-1.4-2.7-2-1.1-.6-2.5-1.3-3.9-2-.9-.4-1.9-1-3-1.6-1.1-.6-2.1-1.4-3.1-2.3-1-.9-1.8-2-2.4-3.3-.6-1.3-.9-2.8-.9-4.7s.5-4.4,1.6-6.1c1.1-1.7,2.6-3,4.7-3.9,2-.9,4.4-1.3,7.1-1.3s4,.2,5.9.7c1.9.5,3.8,1.2,5.9,2.1l-2.7,6.5c-1.8-.7-3.4-1.3-4.9-1.7-1.4-.4-2.9-.6-4.4-.6s-1.9.2-2.7.5c-.7.3-1.3.8-1.7,1.4-.4.6-.6,1.3-.6,2.1s.3,1.7.8,2.4c.6.6,1.4,1.3,2.5,1.9,1.1.6,2.5,1.3,4.2,2.1,2,1,3.8,2,5.2,3,1.4,1,2.5,2.3,3.3,3.7.8,1.4,1.2,3.1,1.2,5.2Z"/>
</svg>